<?xml version="1.0" encoding="utf-8"?>
<!-- Generator: Adobe Illustrator 22.0.1, SVG Export Plug-In . SVG Version: 6.00 Build 0)  -->
<svg version="1.1" id="Layer_1" xmlns="http://www.w3.org/2000/svg" xmlns:xlink="http://www.w3.org/1999/xlink" x="0px" y="0px"
	 viewBox="0 0 256 256" style="enable-background:new 0 0 256 256;" xml:space="preserve">
<style type="text/css">
	.st0{fill:#FFFFFF;}
	.st1{fill:#2C2825;}
</style>
<g id="Layer_x0020_1">
	<g id="_122276072">
		<path id="_122282504" class="st0" d="M179.9,90.5c-2,0.9-4.4,0-5.4-2c-0.9-2,0-4.4,2-5.4c2-0.9,4.9-1.7,8.2-2.3
			c3.1-0.5,6.7-0.9,10.6-1c2.2-0.1,4.1,1.7,4.2,3.9c0.1,2.2-1.7,4.1-3.9,4.2c-3.5,0.1-6.7,0.4-9.5,0.9
			C183.5,89.3,181.4,89.8,179.9,90.5L179.9,90.5z M223,97.1c1,0.7,2.6,1.7,4.2,2.8c5.3,3.4,10.6,6.8,15,11.7
			c3.1,3.4,5.5,7.1,7.1,11.1c1.6,4,2.5,8.2,2.5,12.5v0h0c0,11.6-6.1,21.9-15.9,29.4c-9.5,7.2-22.7,11.7-37.1,11.7h0
			c-2.4,0-4.9-0.1-7.4-0.4c-2.5-0.3-4.9-0.7-7.2-1.2c-2.2-0.5-3.6-2.6-3.1-4.8c0.5-2.2,2.6-3.6,4.8-3.1c2.1,0.5,4.2,0.8,6.4,1
			c2.1,0.2,4.2,0.3,6.5,0.3h0c12.7,0,24-3.8,32.2-10c7.9-5.9,12.7-14.1,12.7-22.9h0v0c0-3.3-0.7-6.5-1.9-9.4
			c-1.3-3.1-3.2-6.1-5.6-8.8c-3.7-4.1-8.5-7.2-13.3-10.3c-1.3-0.8-2.6-1.7-4.4-2.9c-2.7-1.8-4.3-3.2-4.9-5.5
			c-0.7-2.5,0.2-4.6,2.6-7.5c0.2-0.2,0.4-0.4,0.6-0.6c-0.1,0-0.1,0-0.2,0c-2.4-0.9-6-1.5-10.1-1.9c-2.2-0.2-3.9-2.2-3.6-4.4
			c0.2-2.2,2.2-3.9,4.4-3.6c4.9,0.4,9.1,1.3,12.1,2.3c4.3,1.5,6.9,4,6.9,7.1h0c0,0.7-0.1,1.3-0.3,1.8c-0.2,0.5-0.4,1-0.7,1.4
			c-0.6,0.9-1.3,1.6-1.9,2.3c-0.3,0.3-0.6,0.7-0.8,0.9C221.9,96.5,222.5,96.7,223,97.1L223,97.1z"/>
		<path id="_122282672" class="st0" d="M215.4,159.7c-2.2,0.5-4.4-0.8-4.9-2.9c-0.5-2.2,0.8-4.4,2.9-4.9c5.5-1.4,9.7-4.1,12.5-7.4
			c3.2-3.8,4.9-8.4,5.1-12.9c0.1-2.2,2-3.9,4.2-3.8c2.2,0.1,3.9,2,3.8,4.2c-0.3,6.3-2.6,12.6-7.1,17.8
			C228.1,154.2,222.6,157.8,215.4,159.7L215.4,159.7z"/>
		<path id="_122282720" class="st1" d="M4.2,103.8H12v9.3h4.3l10.1-9.5h11.9l-14.8,12.7l16.1,13H27.7l-11.5-9.8H12v9.8H4.2
			L4.2,103.8L4.2,103.8z M40.5,103.8h7.8v11.8c0,2.7,0.1,4.4,0.3,5.1c0.2,1,0.8,1.7,1.9,2c1.1,0.3,3.3,0.5,6.6,0.5
			c2.7,0,4.6-0.1,5.6-0.2c1-0.2,1.8-0.5,2.2-0.9c0.3-0.3,0.5-0.7,0.6-1.2c0.1-0.5,0.2-1.3,0.3-2.4c0.1-1.1,0.1-2.1,0.1-2.8v-11.8
			h7.8v11.8c-0.1,4.1-0.2,6.8-0.4,8c-0.3,2.2-1.3,3.7-3.1,4.7c-1,0.6-2.4,1-4.2,1.2c-1.8,0.2-4.8,0.3-8.9,0.3
			c-3.1,0-5.5-0.1-7.1-0.2c-1.7-0.1-3.1-0.3-4.4-0.6c-2.7-0.7-4.3-2.3-4.8-5c-0.2-1-0.3-1.9-0.3-2.8c0-0.8-0.1-2.7-0.1-5.7
			C40.5,115.6,40.5,103.8,40.5,103.8z M77.2,103.8h14.1l7.6,16.6l7.6-16.6h14.1v25.6H113l0.2-19.2h-1.3l-9.7,19.2h-6.5l-9.7-19.2
			h-1.4l0.2,19.2h-7.7L77.2,103.8L77.2,103.8z M124.3,129.4v-25.6h18.4c3.9,0,6.2,0,7,0.1c1.7,0.1,2.9,0.4,3.7,0.9
			c0.8,0.5,1.3,1.2,1.6,2c0.3,0.9,0.5,2.1,0.5,3.6c0,1.8-0.3,3.2-0.8,4.1c-0.5,0.9-1.4,1.5-2.7,1.9c1.1,0.2,2,0.5,2.5,0.9
			c1.2,0.8,1.9,2.6,1.9,5.3c0,2.1-0.3,3.6-1,4.6c-0.4,0.7-1,1.2-1.8,1.5c-0.7,0.3-1.8,0.5-3.2,0.6c-0.9,0.1-3.5,0.1-7.8,0.1H124.3
			L124.3,129.4z M131.7,113.9h11c2.4,0,3.8-0.1,4.3-0.3c0.6-0.2,0.9-0.9,0.9-1.8c0-1-0.4-1.6-1.1-1.8c-0.3-0.1-1.7-0.1-4.1-0.1h-11
			V113.9z M131.7,123.3h11c2.3,0,3.6,0,4.1-0.1c0.4,0,0.8-0.1,1.1-0.2c0.7-0.3,1-0.9,1-2c0-1.1-0.4-1.7-1.2-1.9
			c-0.3-0.1-1.9-0.1-5-0.1h-11C131.7,119,131.7,123.3,131.7,123.3z M159.1,103.8h8.2v9.2H185v-9.2h8.2v25.6H185v-9.3h-17.6v9.3h-8.2
			V103.8z"/>
		<path id="_122282816" class="st1" d="M39.2,160.8v-19.1h9.2c2.4,0,4.1,0.5,5,1.4c1,0.9,1.4,2.6,1.4,5v6.3c0,2.4-0.5,4-1.5,5
			c-1,1-2.6,1.4-5,1.4C48.4,160.8,39.2,160.8,39.2,160.8z M41.3,158.9H48c1.8,0,3.1-0.3,3.7-0.9c0.6-0.6,0.9-1.8,0.9-3.6v-6.2
			c0-1.8-0.3-3.1-0.9-3.7c-0.6-0.6-1.9-0.9-3.7-0.9h-6.8L41.3,158.9L41.3,158.9z M58.8,160.8v-19.1h13.4v2H60.9v6.2h10.9v1.9H60.9
			v6.9h11.3v2C72.2,160.8,58.8,160.8,58.8,160.8z M75,154.6h2.1v0.4c0,1.1,0.1,2,0.3,2.5c0.2,0.5,0.4,0.9,0.8,1.1
			c0.3,0.2,0.8,0.3,1.4,0.4c0.6,0.1,2,0.1,4,0.1c1.1,0,1.9-0.1,2.5-0.2c0.6-0.1,1-0.4,1.3-0.7c0.2-0.2,0.3-0.5,0.4-0.9
			c0.1-0.4,0.1-1,0.1-1.7c0-1.4-0.1-2.3-0.4-2.7c-0.3-0.4-0.9-0.6-1.7-0.6l-5.9-0.5c-1.8-0.1-3-0.6-3.6-1.3c-0.7-0.7-1-2-1-3.8
			c0-1.1,0.1-2,0.3-2.7c0.2-0.7,0.6-1.2,1.1-1.7c0.4-0.3,0.9-0.6,1.6-0.7c0.7-0.1,1.9-0.2,3.7-0.2h0.7c2,0,3.3,0.1,4.1,0.3
			c0.8,0.2,1.5,0.5,2,1c0.4,0.3,0.6,0.7,0.8,1.3c0.2,0.6,0.3,1.3,0.3,2.1c0,0.2,0,0.4,0,0.6c0,0.1,0,0.2,0,0.3h-2.1v-0.5
			c0-0.7,0-1.2-0.1-1.6c-0.1-0.4-0.2-0.6-0.4-0.8c-0.3-0.3-0.7-0.5-1.4-0.6c-0.7-0.1-2-0.2-3.9-0.2c-2,0-3.2,0.2-3.7,0.7
			c-0.5,0.4-0.8,1.3-0.8,2.7c0,1.1,0.2,1.8,0.5,2.3c0.3,0.4,1,0.7,1.9,0.7l6,0.5c1.6,0.1,2.7,0.6,3.3,1.3c0.6,0.7,0.9,1.9,0.9,3.7
			c0,1.2-0.1,2.2-0.2,2.8c-0.2,0.6-0.4,1.1-0.8,1.6c-0.5,0.5-1.1,0.9-1.9,1.1c-0.8,0.2-2.2,0.3-4.3,0.3H82c-1.8,0-3-0.1-3.7-0.3
			c-0.7-0.2-1.3-0.5-1.8-0.9c-0.5-0.4-0.8-1-1.1-1.7c-0.2-0.7-0.3-1.6-0.3-2.7C75,155.5,75,154.6,75,154.6z M94.3,160.8v-19.1h2.1
			v19.1H94.3z M100.3,148c0-2.4,0.5-4.1,1.5-5.1c1-1,2.8-1.4,5.3-1.4h2.4c2.3,0,4.1,0.4,5.2,1.2c1.1,0.8,1.7,2,1.7,3.7v0.8h-2.2V147
			c0-1.3-0.3-2.2-1-2.7c-0.7-0.5-1.9-0.8-3.8-0.8h-1.7c-1.3,0-2.2,0.1-2.8,0.2c-0.6,0.1-1.1,0.4-1.5,0.7c-0.4,0.3-0.6,0.7-0.8,1.3
			c-0.1,0.5-0.2,1.5-0.2,2.9v5.4c0,1.4,0.1,2.3,0.2,2.8c0.1,0.5,0.4,1,0.8,1.3c0.4,0.3,0.9,0.6,1.4,0.7c0.6,0.1,1.5,0.2,2.8,0.2h1.7
			c1.2,0,2.1-0.1,2.6-0.2c0.5-0.1,0.9-0.3,1.3-0.7c0.3-0.3,0.6-0.7,0.7-1.2c0.1-0.5,0.2-1.4,0.2-2.6v-1.2h-5.3v-1.9h7.5v3.2
			c0,2.4-0.5,4.1-1.5,5.1c-1,1-2.8,1.4-5.3,1.4h-2.4c-2.6,0-4.3-0.5-5.3-1.4c-1-1-1.5-2.7-1.5-5.1L100.3,148L100.3,148z
			 M120.2,160.8v-19.1h3.3l10.3,17v-17h2.1v19.1h-3.3l-10.3-17v17C122.3,160.8,120.2,160.8,120.2,160.8z M149.4,160.8v-19.1h2.1
			v19.1H149.4z M156.1,160.8v-19.1h3.3l10.3,17v-17h2.1v19.1h-3.3l-10.3-17v17C158.2,160.8,156.1,160.8,156.1,160.8z M175.8,148
			c0-2.4,0.5-4.1,1.4-5.1c0.9-1,2.6-1.4,4.9-1.4h2.2c2.3,0,4,0.4,4.9,1.2c0.9,0.8,1.4,2.2,1.4,4.2v0.8h-2.2v-0.5
			c0-1.4-0.3-2.4-0.9-3c-0.6-0.5-1.7-0.8-3.5-0.8h-1.5c-1.2,0-2,0.1-2.5,0.2c-0.5,0.1-1,0.4-1.3,0.7c-0.3,0.3-0.6,0.7-0.7,1.3
			c-0.1,0.5-0.2,1.5-0.2,2.9v5.4c0,1.4,0.1,2.3,0.2,2.9c0.1,0.5,0.4,0.9,0.7,1.3c0.3,0.3,0.8,0.6,1.3,0.7c0.5,0.1,1.3,0.2,2.6,0.2
			h1.5c1.8,0,2.9-0.3,3.5-0.8c0.6-0.6,0.9-1.6,0.9-3.2c0-0.2,0-0.4,0-0.6c0-0.1,0-0.2,0-0.4h2.2v1.3c0,2.1-0.5,3.6-1.4,4.4
			c-0.9,0.8-2.6,1.2-5,1.2h-2.2c-2.4,0-4-0.5-4.9-1.4c-0.9-1-1.4-2.7-1.4-5.1L175.8,148L175.8,148z M193.7,160.8V158h2.2v2.8H193.7z
			"/>
	</g>
</g>
</svg>
